#N canvas 533 105 648 306 10;
#X obj 42 128 osc~ 440;
#X obj 39 213 dac~;
#X obj 38 172 *~ 1;
#X obj 113 24 loadbang;
#X obj 115 55 delay 100;
#X msg 219 56 open;
#X msg 114 87 \; pd dsp 1;
#X msg 220 91 close;
#X msg 224 117 devices;
#X obj 220 202 arduino;
#X obj 323 34 delay 1000;
#X msg 323 57 pinMode 13 output;
#X obj 323 94 delay 200;
#X msg 323 117 pinMode 10 servo;
#X msg 329 164 0.6 \, 0.15 500;
#X msg 343 195 0.16 \, 0.61 500;
#X obj 329 231 line 1 20;
#X obj 403 231 sel 0.15;
#X obj 472 231 sel 0.61;
#X msg 326 268 analog 10 \$1;
#X obj 473 200 spigot 0;
#X obj 473 167 sel 0 1;
#X obj 469 135 tgl 15 0 empty empty empty 17 7 0 10 -262144 -1 -1 0
1;
#X obj 485 38 tgl 15 0 empty empty empty 17 7 0 10 -262144 -1 -1 0
1;
#X msg 484 64 digital 13 \$1;
#X connect 0 0 2 0;
#X connect 2 0 1 0;
#X connect 2 0 1 1;
#X connect 3 0 4 0;
#X connect 3 0 10 0;
#X connect 3 0 12 0;
#X connect 4 0 6 0;
#X connect 10 0 11 0;
#X connect 12 0 13 0;
#X connect 14 0 16 0;
#X connect 15 0 16 0;
#X connect 16 0 19 0;
#X connect 16 0 17 0;
#X connect 16 0 18 0;
#X connect 17 0 15 0;
#X connect 18 0 20 0;
#X connect 20 0 14 0;
#X connect 21 1 14 0;
#X connect 22 0 21 0;
#X connect 22 0 20 1;
#X connect 23 0 24 0;
